<svg version="1.1" xmlns="http://www.w3.org/2000/svg" viewBox="0 0 920.5 150.5" width="920.5" height="150.5">
  <!-- svg-source:excalidraw -->
  
  <defs>
    <style class="style-fonts">
      @font-face {
        font-family: "Virgil";
        src: url("https://excalidraw.com/Virgil.woff2");
      }
      @font-face {
        font-family: "Cascadia";
        src: url("https://excalidraw.com/Cascadia.woff2");
      }
      @font-face {
        font-family: "Assistant";
        src: url("https://excalidraw.com/Assistant-Regular.woff2");
      }
    </style>
    
  </defs>
  <rect x="0" y="0" width="920.5" height="150.5" fill="#ffffff"></rect><g stroke-linecap="round" transform="translate(122 14.5) rotate(0 94.5 55)"><path d="M27.5 0 C66.36 -1.83, 105.01 -0.28, 161.5 0 M27.5 0 C66.53 -0.27, 105.25 0.19, 161.5 0 M161.5 0 C178.34 1, 187.8 10.51, 189 27.5 M161.5 0 C180.27 1.78, 189.12 9.04, 189 27.5 M189 27.5 C189.72 42.84, 188.6 62.19, 189 82.5 M189 27.5 C189.04 44.08, 188.86 61.35, 189 82.5 M189 82.5 C190.45 102.63, 179.13 109.82, 161.5 110 M189 82.5 C188.17 99.37, 181.01 112.19, 161.5 110 M161.5 110 C121.74 111.92, 84.42 111.81, 27.5 110 M161.5 110 C113.3 108.63, 63.73 109.29, 27.5 110 M27.5 110 C9.86 110.55, -1.22 100.18, 0 82.5 M27.5 110 C7.37 110.12, -1.32 99.13, 0 82.5 M0 82.5 C0.82 64.78, 1.63 44.16, 0 27.5 M0 82.5 C0.15 64.3, -0.44 47.81, 0 27.5 M0 27.5 C0.59 10.14, 8.65 -1.33, 27.5 0 M0 27.5 C-2.05 8.21, 9.52 2, 27.5 0" stroke="#1e1e1e" stroke-width="2" fill="none"></path></g><g transform="translate(183.47003936767578 57) rotate(0 33.02996063232422 12.5)"><text x="33.02996063232422" y="0" font-family="Virgil, Segoe UI Emoji" font-size="20px" fill="#1e1e1e" text-anchor="middle" style="white-space: pre;" direction="ltr" dominant-baseline="text-before-edge">rsyslog</text></g><g stroke-linecap="round" transform="translate(429.5 13.5) rotate(0 94.5 55)"><path d="M27.5 0 C64.22 0.63, 105.05 2.83, 161.5 0 M27.5 0 C62.29 0.83, 97.88 0.93, 161.5 0 M161.5 0 C180.65 1.5, 189.1 8.05, 189 27.5 M161.5 0 C179.78 -0.93, 191.16 10.31, 189 27.5 M189 27.5 C191.31 39.03, 190.19 51.98, 189 82.5 M189 27.5 C188.32 38.56, 189.28 50.24, 189 82.5 M189 82.5 C187.21 101.17, 180.86 109.42, 161.5 110 M189 82.5 C188.85 102.18, 180.18 107.91, 161.5 110 M161.5 110 C113.71 109.77, 69.97 110.35, 27.5 110 M161.5 110 C133.63 108.28, 107.06 109.22, 27.5 110 M27.5 110 C10.55 110.72, -1.69 99.65, 0 82.5 M27.5 110 C8.86 111.92, -1.67 101.62, 0 82.5 M0 82.5 C2.15 71, 0.43 57.34, 0 27.5 M0 82.5 C-1.15 65.47, 0.33 46.92, 0 27.5 M0 27.5 C-0.78 7.39, 8.02 -0.23, 27.5 0 M0 27.5 C0.25 7.75, 7.78 -2.12, 27.5 0" stroke="#1e1e1e" stroke-width="2" fill="none"></path></g><g transform="translate(485.76004791259766 56) rotate(0 38.239952087402344 12.5)"><text x="38.239952087402344" y="0" font-family="Virgil, Segoe UI Emoji" font-size="20px" fill="#1e1e1e" text-anchor="middle" style="white-space: pre;" direction="ltr" dominant-baseline="text-before-edge">promtail</text></g><g stroke-linecap="round" transform="translate(721.5 11.5) rotate(0 94.5 55)"><path d="M27.5 0 C68.89 2.47, 110.83 -0.34, 161.5 0 M27.5 0 C70.67 1.19, 112.97 1.73, 161.5 0 M161.5 0 C178.15 1.89, 189.24 10.39, 189 27.5 M161.5 0 C179.13 1.4, 190.6 9.76, 189 27.5 M189 27.5 C190.09 41.54, 189.6 53.22, 189 82.5 M189 27.5 C189.56 48.04, 188.31 70.88, 189 82.5 M189 82.5 C187.79 100.5, 180.49 110.09, 161.5 110 M189 82.5 C190.42 102.68, 180.7 108.17, 161.5 110 M161.5 110 C121.15 112.21, 82.57 109.64, 27.5 110 M161.5 110 C124.57 110.57, 89.16 111.04, 27.5 110 M27.5 110 C7.74 108.39, -1.03 100.28, 0 82.5 M27.5 110 C9.29 111.02, 0.02 102.23, 0 82.5 M0 82.5 C0.39 70.36, -0.17 55.13, 0 27.5 M0 82.5 C-0.32 62.76, -0.47 42.79, 0 27.5 M0 27.5 C-0.77 10.87, 10.43 -0.43, 27.5 0 M0 27.5 C-1.93 9.4, 10.92 -0.96, 27.5 0" stroke="#1e1e1e" stroke-width="2" fill="none"></path></g><g transform="translate(800.77001953125 54) rotate(0 15.22998046875 12.5)"><text x="15.22998046875" y="0" font-family="Virgil, Segoe UI Emoji" font-size="20px" fill="#1e1e1e" text-anchor="middle" style="white-space: pre;" direction="ltr" dominant-baseline="text-before-edge">loki</text></g><g stroke-linecap="round"><g transform="translate(55.4448154553026 94.91606775627017) rotate(0 32.7775922723487 -0.6973955802627358)"><path d="M-0.04 0.18 C10.68 0.19, 54.46 0.08, 65.41 -0.21 M-1.52 -0.77 C8.93 -1.04, 53.31 -1.79, 64.39 -1.72" stroke="#1e1e1e" stroke-width="2" fill="none"></path></g><g transform="translate(55.4448154553026 94.91606775627017) rotate(0 32.7775922723487 -0.6973955802627358)"><path d="M40.96 7 C50.52 3.34, 61.42 0.34, 64.39 -1.72 M40.96 7 C48.25 4.26, 53.79 1.21, 64.39 -1.72" stroke="#1e1e1e" stroke-width="2" fill="none"></path></g><g transform="translate(55.4448154553026 94.91606775627017) rotate(0 32.7775922723487 -0.6973955802627358)"><path d="M40.84 -10.1 C50.4 -7.03, 61.35 -3.28, 64.39 -1.72 M40.84 -10.1 C48.31 -7.96, 53.89 -6.12, 64.39 -1.72" stroke="#1e1e1e" stroke-width="2" fill="none"></path></g></g><mask></mask><g transform="translate(10 65.5) rotate(0 21.54998016357422 12.5)"><text x="0" y="0" font-family="Virgil, Segoe UI Emoji" font-size="20px" fill="#1e1e1e" text-anchor="start" style="white-space: pre;" direction="ltr" dominant-baseline="text-before-edge">UDP</text></g><g transform="translate(19.45001983642578 10) rotate(0 21.089981079101562 12.5)"><text x="0" y="0" font-family="Virgil, Segoe UI Emoji" font-size="20px" fill="#1e1e1e" text-anchor="start" style="white-space: pre;" direction="ltr" dominant-baseline="text-before-edge">TCP</text></g><g stroke-linecap="round"><g transform="translate(314 72.47441123910923) rotate(0 55.24999999999999 -0.12337830103832914)"><path d="M-0.88 1.14 C17.68 1.03, 93.17 0.52, 111.67 0.14 M0.86 0.7 C19.34 0.14, 93.29 -1.62, 111.34 -1.79" stroke="#1e1e1e" stroke-width="2" fill="none"></path></g><g transform="translate(314 72.47441123910923) rotate(0 55.24999999999999 -0.12337830103832914)"><path d="M88 7.18 C97.47 6.38, 103.81 0.88, 111.34 -1.79 M88 7.18 C93.76 5.8, 98.71 3.94, 111.34 -1.79" stroke="#1e1e1e" stroke-width="2" fill="none"></path></g><g transform="translate(314 72.47441123910923) rotate(0 55.24999999999999 -0.12337830103832914)"><path d="M87.7 -9.92 C97.38 -5.13, 103.82 -5.05, 111.34 -1.79 M87.7 -9.92 C93.49 -7.45, 98.51 -5.47, 111.34 -1.79" stroke="#1e1e1e" stroke-width="2" fill="none"></path></g></g><mask></mask><g transform="translate(326 90.5) rotate(0 49.63994598388672 25)"><text x="0" y="0" font-family="Virgil, Segoe UI Emoji" font-size="20px" fill="#1e1e1e" text-anchor="start" style="white-space: pre;" direction="ltr" dominant-baseline="text-before-edge">normalize</text><text x="0" y="25" font-family="Virgil, Segoe UI Emoji" font-size="20px" fill="#1e1e1e" text-anchor="start" style="white-space: pre;" direction="ltr" dominant-baseline="text-before-edge">&amp; forward</text></g><g stroke-linecap="round"><g transform="translate(64.33059829933211 38.68835164870313) rotate(0 26.249473233296925 -0.5584994304957149)"><path d="M-0.01 0.53 C8.55 0.39, 42.95 -1.66, 51.84 -1.93 M-1.47 -0.23 C7.44 -0.15, 45.13 -0.9, 54.2 -0.81" stroke="#1e1e1e" stroke-width="2" fill="none"></path></g><g transform="translate(64.33059829933211 38.68835164870313) rotate(0 26.249473233296925 -0.5584994304957149)"><path d="M30.77 7.9 C39.7 3.84, 45.43 3.31, 54.2 -0.81 M30.77 7.9 C38.69 6.08, 45.22 2.16, 54.2 -0.81" stroke="#1e1e1e" stroke-width="2" fill="none"></path></g><g transform="translate(64.33059829933211 38.68835164870313) rotate(0 26.249473233296925 -0.5584994304957149)"><path d="M30.65 -9.2 C39.47 -7.45, 45.24 -2.16, 54.2 -0.81 M30.65 -9.2 C38.44 -5.78, 45.01 -4.47, 54.2 -0.81" stroke="#1e1e1e" stroke-width="2" fill="none"></path></g></g><mask></mask><g transform="translate(342.91001892089844 35) rotate(0 21.089981079101562 12.5)"><text x="0" y="0" font-family="Virgil, Segoe UI Emoji" font-size="20px" fill="#1e1e1e" text-anchor="start" style="white-space: pre;" direction="ltr" dominant-baseline="text-before-edge">TCP</text></g><g stroke-linecap="round"><g transform="translate(621 66.60187885948739) rotate(0 48.5 0.37811429846070155)"><path d="M-0.68 1.12 C15.58 0.92, 80.05 0.22, 96.52 -0.03 M1.17 0.66 C17.31 1.1, 79.18 1.15, 95.32 1.1" stroke="#1e1e1e" stroke-width="2" fill="none"></path></g><g transform="translate(621 66.60187885948739) rotate(0 48.5 0.37811429846070155)"><path d="M71.83 9.66 C78.73 7.13, 80.68 8.01, 95.32 1.1 M71.83 9.66 C77.53 8.3, 81.85 6.52, 95.32 1.1" stroke="#1e1e1e" stroke-width="2" fill="none"></path></g><g transform="translate(621 66.60187885948739) rotate(0 48.5 0.37811429846070155)"><path d="M71.83 -7.44 C78.89 -6.25, 80.84 -1.64, 95.32 1.1 M71.83 -7.44 C77.43 -5.3, 81.75 -3.58, 95.32 1.1" stroke="#1e1e1e" stroke-width="2" fill="none"></path></g></g><mask></mask><g transform="translate(640 77.5) rotate(0 20.97997283935547 12.5)"><text x="0" y="0" font-family="Virgil, Segoe UI Emoji" font-size="20px" fill="#1e1e1e" text-anchor="start" style="white-space: pre;" direction="ltr" dominant-baseline="text-before-edge">push</text></g></svg>

